<?xml version="1.0" encoding="UTF-8" standalone="no" ?>
<!DOCTYPE svg PUBLIC "-//W3C//DTD SVG 1.1//EN" "http://www.w3.org/Graphics/SVG/1.1/DTD/svg11.dtd">
<svg xmlns="http://www.w3.org/2000/svg" xmlns:xlink="http://www.w3.org/1999/xlink" version="1.1" width="1280" height="1024" viewBox="0 0 1280 1024" xml:space="preserve">
<desc>Created with Fabric.js 5.3.0</desc>
<defs>
</defs>
<g transform="matrix(1 0 0 1 640 512)" id="background-logo"  >
<rect style="stroke: none; stroke-width: 0; stroke-dasharray: none; stroke-linecap: butt; stroke-dashoffset: 0; stroke-linejoin: miter; stroke-miterlimit: 4; fill: rgb(255,255,255); fill-opacity: 0; fill-rule: nonzero; opacity: 1;"  paint-order="stroke"  x="-640" y="-512" rx="0" ry="0" width="1280" height="1024" />
</g>
<g transform="matrix(1.9211538461538462 0 0 1.9211538461538462 609.2615384615384 401.96057123596586)" id="logo-logo"  >
<g style=""  paint-order="stroke"   >
		<g transform="matrix(0.5976540308871362 0 0 0.5976540308871362 33.90654461098819 -7.886506594803961)"  >
<linearGradient id="SVGID_24_935601" gradientUnits="userSpaceOnUse" gradientTransform="matrix(1 0 0 1 0 0)"  x1="471.2636036" y1="367.9427277" x2="540.7864981" y2="367.9427277">
<stop offset="0.5618%" style="stop-color:rgb(234,191,124);stop-opacity: 1"/>
<stop offset="18.5393%" style="stop-color:rgb(236,207,136);stop-opacity: 1"/>
<stop offset="41.011199999999995%" style="stop-color:rgb(242,230,216);stop-opacity: 1"/>
<stop offset="73.0337%" style="stop-color:rgb(191,130,43);stop-opacity: 1"/>
<stop offset="94.9438%" style="stop-color:rgb(233,189,128);stop-opacity: 1"/>
</linearGradient>
<path style="stroke: none; stroke-width: 1; stroke-dasharray: none; stroke-linecap: butt; stroke-dashoffset: 0; stroke-linejoin: miter; stroke-miterlimit: 4; fill: #FFFFFFSVGID_24_935601); fill-rule: nonzero; opacity: 1;"  paint-order="stroke"  transform=" translate(-506.0250507777873, -367.94272775959314)" d="M 521.793211 367.8282971 C 524.3412648000001 384.77673139999996 530.0200499 403.4267668 531.5830522 420.3459699 C 532.1772645 426.7782046 532.9151863 431.851673 525.2301389 432.7492687 C 516.9196302 433.7199168 494.50071890000004 433.715303 486.18450930000006 432.7492634 C 483.5577089000001 432.44412520000003 481.08352840000003 431.59338130000003 479.90473870000005 429.0350209 C 480.93504680000007 408.6046928 485.99910600000004 388.3722321 489.33009490000006 368.1755471 C 467.3382268000001 354.941958 463.94048770000006 321.5574962 487.40787880000005 307.927008 C 528.6941008 283.9468663 563.8707085000001 344.49970940000003 521.793211 367.8282971 Z" stroke-linecap="round" />
</g>
		<g transform="matrix(0.5976540308871362 0 0 0.5976540308871362 0 0)"  >
<linearGradient id="SVGID_25_935602" gradientUnits="userSpaceOnUse" gradientTransform="matrix(1 0 0 1 0 0)"  x1="289.8360423" y1="381.1385001" x2="608.7485996" y2="381.1385001">
<stop offset="0.5618%" style="stop-color:rgb(234,191,124);stop-opacity: 1"/>
<stop offset="18.5393%" style="stop-color:rgb(236,207,136);stop-opacity: 1"/>
<stop offset="41.011199999999995%" style="stop-color:rgb(242,230,216);stop-opacity: 1"/>
<stop offset="73.0337%" style="stop-color:rgb(191,130,43);stop-opacity: 1"/>
<stop offset="94.9438%" style="stop-color:rgb(233,189,128);stop-opacity: 1"/>
</linearGradient>
<path style="stroke: none; stroke-width: 1; stroke-dasharray: none; stroke-linecap: butt; stroke-dashoffset: 0; stroke-linejoin: miter; stroke-miterlimit: 4; fill: #FFFFFFSVGID_25_935602); fill-rule: nonzero; opacity: 1;"  paint-order="stroke"  transform=" translate(-449.2923210400517, -381.1385002085759)" d="M 608.7439609 268.4012305 L 472.1304355000001 212.7317969 L 332.7073398000001 268.2264258 L 332.7073398000001 334.7264258 L 352.7073398000001 334.7264258 L 352.7073398000001 282.2264258 L 391.7073398000001 266.7264258 L 391.7073398000001 303.2264258 C 391.7073398000001 304.1190039 383.12115820000014 308.7972266 385.1460605000001 318.7767188 C 388.5674472000001 335.63755860000003 414.31232030000007 333.0110938 413.7534824000001 315.2601172 C 413.5254551000001 308.0179297 407.4065586000001 305.7523047 406.72980080000013 302.2039649 L 406.6624180000001 260.3865821 L 429.70733990000014 250.7264259 L 429.70733990000014 338.2264259 L 409.1851231000001 358.7044532 L 326.2295567000001 358.7044532 C 322.88531840000013 358.0672462 319.9487950000001 351.9695899 315.4382969000001 350.4949805 C 298.72369730000014 345.0311133 284.0029942000001 360.9095313 292.14654890000014 376.787461 C 298.93024030000015 390.01451180000004 319.58307230000014 388.1028907 325.71222270000015 375.2313087 L 416.68902930000013 374.2083595 L 444.6851231000001 345.20445329999995 L 444.8760411000001 244.89000019999997 C 452.1055333000001 243.14097679999998 466.1653477000001 233.65660179999998 472.9585606000001 234.94468769999997 L 588.5723301000002 281.86265649999996 L 588.6944004000002 394.2137306999999 C 581.3616367000002 458.23863299999994 525.9932285000002 501.87925799999994 472.04376560000014 528.5032815 C 468.64435150000014 526.9441995 456.2964511000001 522.4310158999999 455.70318940000016 519.2308205999999 L 455.50250580000016 429.4310158999999 L 424.20733980000017 397.7264260999999 L 335.70733980000017 397.7264260999999 L 338.71441990000017 413.7200783999999 L 417.18512300000015 413.7488869999999 L 440.70733980000017 436.2264260999999 L 440.70733980000017 511.7264260999999 L 426.2363925000002 500.79478549999993 L 418.6802402000002 495.7855081999999 L 418.6802402000002 467.2298440999999 C 418.5850254000002 466.5555276999999 418.5420566000002 465.8802346999999 418.5989414000002 465.2015237999999 C 418.61481050000015 465.0120706999999 418.64264260000016 464.8314065999999 418.6802402000002 464.6570901999999 C 419.22906830000016 462.1058206999999 421.9741855000002 461.0521096999999 423.50079680000016 458.0486917999999 C 426.29156830000016 452.5589456999999 426.6316562000002 448.1302347999999 423.15924410000014 442.7747659999999 C 413.53400000000016 427.93052769999986 389.27643160000014 441.8426370999999 398.8565097000001 458.0770120999999 C 400.7158847000001 461.2278909999999 403.25226170000013 461.19273479999987 403.6485019000001 464.33531289999985 L 403.6485019000001 482.7332620999998 C 403.3374667000001 482.64195349999983 403.0728183000001 482.4612893999998 402.6922031000001 482.2430276999998 C 400.7822910000001 481.1463479999998 392.2322422000001 472.0345315999998 390.1931797000001 469.7405862999998 C 379.3635899000001 457.5589456999998 371.2669102000001 443.3455667999998 364.2073399000001 428.7264260999998 L 343.7073399000001 428.7264260999998 C 359.5986973000001 475.0677346999998 400.4043614000001 511.2498635999998 442.0361973000001 534.8978127999998 C 446.3862950000001 537.3685158999998 469.0244785000001 549.7952736999998 471.9544102000001 549.5413674999998 C 475.1587559000001 549.2635354999998 487.9790684000001 542.2342385999998 491.7288243000001 540.2479104999998 C 548.6694981 510.08335969999973 604.9678380000001 458.98179719999973 608.7485997000001 390.26792999999975 L 608.7439610000001 268.4012307999998 Z M 310.709293 371.2303321 C 304.1868321 374.4822852 301.8101231 365.4022071 306.3775059 363.8592383 C 312.0198399 361.9534766 315.098209 369.0418555 310.709293 371.2303321 Z" stroke-linecap="round" />
</g>
</g>
</g>
<g transform="matrix(1.9211538461538462 0 0 1.9211538461538462 626.0207240384615 688.513910964326)" id="text-logo"  >
<g style=""  paint-order="stroke"   >
		<g transform="matrix(1 0 0 1 5.684342e-14 0)" id="text-logo-path-0"  >
<path style="stroke: none; stroke-width: 0; stroke-dasharray: none; stroke-linecap: butt; stroke-dashoffset: 0; stroke-linejoin: miter; stroke-miterlimit: 4; fill: rgb(203,149,75); fill-rule: nonzero; opacity: 1;"  paint-order="stroke"  transform=" translate(-177.22500000000002, 18.900000000000002)" d="M 8.69 0 L 11.61 -7.56 L 28.57 -7.56 L 31.48 0 L 38.39 0 L 23.81 -37.8 L 16.36 -37.8 L 1.78 0 Z M 14.09 -14.04 L 20.09 -29.54 L 26.08 -14.04 Z M 52.54 0 L 52.54 -37.8 L 46.06 -37.8 L 46.06 0 Z M 66.69 0 L 66.69 -37.8 L 60.21 -37.8 L 60.21 0 Z M 92.72 0 L 92.72 -31.32 L 104.6 -31.32 L 104.6 -37.8 L 74.36 -37.8 L 74.36 -31.32 L 86.24 -31.32 L 86.24 0 Z M 152.12 -27 L 158.6 -27 C 158.6 -35.1 154.55 -38.34 143.53 -38.34 C 130.41 -38.34 127.17 -33.75 127.17 -26.14 C 127.17 -21.28 130.57 -16.25 137.43 -15.93 L 149.26 -15.44 C 153.04 -15.28 153.36 -15.01 153.36 -11.66 C 153.36 -6.7 152.6 -5.94 143.48 -5.94 C 133.97 -5.94 133.65 -6.26 133.65 -11.66 L 127.17 -11.66 C 127.17 -3.24 130.63 0.54 143.48 0.54 C 155.95 0.54 159.84 -3.56 159.84 -11.66 C 159.84 -18.36 156.06 -21.65 149.58 -21.92 L 137.75 -22.41 C 134.41 -22.57 133.65 -23.76 133.65 -26.14 C 133.65 -31.16 134.19 -31.86 143.53 -31.86 C 151.74 -31.86 152.12 -31.54 152.12 -27 Z M 167.51 0 L 195.59 0 L 195.59 -6.48 L 173.99 -6.48 L 173.99 -15.66 L 190.19 -15.66 L 190.19 -22.14 L 173.99 -22.14 L 173.99 -31.32 L 195.59 -31.32 L 195.59 -37.8 L 167.51 -37.8 Z M 238.19 -5.83 L 232.79 -9.4 C 231.07 -6.8 228.47 -5.94 222.21 -5.94 C 211.84 -5.94 209.74 -8.1 209.74 -18.9 C 209.74 -29.75 211.9 -31.86 222.21 -31.86 C 227.39 -31.86 229.99 -31.21 231.88 -29.54 L 236.2 -34.29 C 233.01 -37.26 228.37 -38.34 222.21 -38.34 C 208.82 -38.34 203.26 -33.05 203.26 -18.9 C 203.26 -5.02 208.66 0.54 222.21 0.54 C 229.72 0.54 235.12 -1.08 238.19 -5.83 Z M 272.05 -37.8 L 272.05 -16.2 C 272.05 -7.51 270.43 -5.94 262.17 -5.94 C 253.85 -5.94 252.34 -7.61 252.34 -16.2 L 252.34 -37.8 L 245.86 -37.8 L 245.86 -16.2 C 245.86 -4.64 250.45 0.54 262.17 0.54 C 273.51 0.54 278.53 -4.21 278.53 -16.2 L 278.53 -37.8 Z M 292.68 0 L 292.68 -12.96 L 302.18 -12.96 L 309.47 0 L 316.93 0 L 309.26 -13.66 C 313.96 -15.12 316.49 -19.01 316.49 -25.38 C 316.49 -33.43 312.5 -37.8 304.07 -37.8 L 286.2 -37.8 L 286.2 0 Z M 292.68 -19.44 L 292.68 -31.32 L 304.07 -31.32 C 309.2 -31.32 310.01 -30.46 310.01 -25.38 C 310.01 -20.25 309.15 -19.44 304.07 -19.44 Z M 324.59 0 L 352.67 0 L 352.67 -6.48 L 331.07 -6.48 L 331.07 -15.66 L 347.27 -15.66 L 347.27 -22.14 L 331.07 -22.14 L 331.07 -31.32 L 352.67 -31.32 L 352.67 -37.8 L 324.59 -37.8 Z" stroke-linecap="round" />
</g>
</g>
</g>
<g transform="matrix(1.9211538461538462 0 0 1.9211538461538462 640.0518711538463 781.4222941950952)" id="tagline-a0091031-c962-43d5-965a-ae8f5b3c5677-logo"  >
<g style=""  paint-order="stroke"   >
		<g transform="matrix(1 0 0 1 0 0)" id="tagline-a0091031-c962-43d5-965a-ae8f5b3c5677-logo-path-0"  >
<path style="stroke: none; stroke-width: 0; stroke-dasharray: none; stroke-linecap: butt; stroke-dashoffset: 0; stroke-linejoin: miter; stroke-miterlimit: 4; fill: rgb(203,149,75); fill-rule: nonzero; opacity: 1;"  paint-order="stroke"  transform=" translate(-201.09500000000003, 9.515)" d="M 5.97 -18.9 L 2.16 -18.9 C 1.57 -18.9 1.08 -18.41 1.08 -17.82 L 1.08 -1.08 C 1.08 -0.49 1.57 0 2.16 0 L 5.97 0 C 11.15 0 15.39 -4.21 15.39 -9.48 C 15.39 -14.69 11.15 -18.9 5.97 -18.9 Z M 2.97 -1.89 L 2.97 -17.01 L 5.97 -17.01 C 10.26 -17.01 13.5 -13.77 13.5 -9.48 C 13.5 -5.13 10.26 -1.89 5.97 -1.89 Z M 30.21 -0.86 L 30.21 -7.64 L 34.78 -7.64 L 34.86 -7.64 L 38.39 -0.51 C 38.56 -0.22 38.88 0 39.23 0 C 39.74 0 40.18 -0.43 40.18 -0.94 C 40.18 -1.11 40.15 -1.27 40.07 -1.38 L 36.77 -8.02 C 38.85 -8.86 40.36 -10.91 40.36 -13.31 C 40.36 -16.36 37.83 -18.9 34.78 -18.9 L 29.4 -18.9 C 28.81 -18.9 28.32 -18.41 28.32 -17.82 L 28.32 -0.86 C 28.32 -0.32 28.75 0.08 29.27 0.08 C 29.78 0.08 30.21 -0.32 30.21 -0.86 Z M 30.21 -9.53 L 30.21 -17.01 L 34.78 -17.01 C 36.94 -17.01 38.47 -15.47 38.47 -13.31 C 38.47 -11.1 36.91 -9.53 34.78 -9.53 Z M 54.24 -17.01 L 55.84 -17.01 L 55.84 -1.89 L 54.24 -1.89 C 53.7 -1.89 53.3 -1.46 53.3 -0.94 C 53.3 -0.43 53.7 0 54.24 0 L 59.32 0 C 59.83 0 60.26 -0.43 60.26 -0.94 C 60.26 -1.46 59.83 -1.89 59.32 -1.89 L 57.73 -1.89 L 57.73 -17.01 L 59.32 -17.01 C 59.83 -17.01 60.26 -17.44 60.26 -17.95 C 60.26 -18.47 59.83 -18.9 59.32 -18.9 L 54.24 -18.9 C 53.7 -18.9 53.3 -18.47 53.3 -17.95 C 53.3 -17.44 53.7 -17.01 54.24 -17.01 Z M 73.28 -17.74 L 79.95 -0.73 C 80.33 0.24 81.68 0.24 82.05 -0.73 L 88.72 -17.74 C 88.78 -17.85 88.8 -17.98 88.8 -18.12 C 88.8 -18.63 88.37 -19.06 87.86 -19.06 C 87.45 -19.06 87.13 -18.82 86.97 -18.47 L 81 -3.16 L 75.03 -18.47 C 74.87 -18.82 74.55 -19.06 74.14 -19.06 C 73.63 -19.06 73.2 -18.63 73.2 -18.12 C 73.2 -17.98 73.22 -17.85 73.28 -17.74 Z M 112.94 -1.89 L 103.63 -1.89 L 103.63 -8.51 L 111.05 -8.51 C 111.56 -8.51 112 -8.94 112 -9.45 C 112 -9.96 111.56 -10.39 111.05 -10.39 L 103.63 -10.39 L 103.63 -17.01 L 112.94 -17.01 C 113.45 -17.01 113.89 -17.44 113.89 -17.95 C 113.89 -18.47 113.45 -18.9 112.94 -18.9 L 102.82 -18.9 C 102.22 -18.9 101.74 -18.41 101.74 -17.82 L 101.74 -1.08 C 101.74 -0.49 102.22 0 102.82 0 L 112.94 0 C 113.45 0 113.89 -0.43 113.89 -0.94 C 113.89 -1.46 113.45 -1.89 112.94 -1.89 Z M 128.71 -0.86 L 128.66 -15.44 L 139.83 -0.46 C 140.53 0.43 141.94 -0.05 141.94 -1.16 L 141.94 -18.06 C 141.94 -18.58 141.51 -19.01 140.99 -19.01 C 140.48 -19.01 140.05 -18.58 140.05 -18.06 L 140.05 -3.32 L 128.74 -18.5 C 128.12 -19.33 126.77 -18.82 126.77 -17.77 L 126.82 -0.84 C 126.82 -0.32 127.25 0.11 127.76 0.11 C 128.28 0.11 128.71 -0.32 128.71 -0.86 Z M 172.94 -9.42 L 177.74 -9.42 C 179.98 -9.42 181.55 -7.88 181.55 -5.67 C 181.55 -3.43 179.98 -1.89 177.74 -1.89 L 172.94 -1.89 Z M 171.05 -1.08 C 171.05 -0.49 171.53 0 172.13 0 L 177.74 0 C 180.87 0 183.44 -2.51 183.44 -5.67 C 183.44 -7.99 182.03 -9.96 180.04 -10.83 C 180.87 -11.69 181.41 -12.91 181.41 -14.2 C 181.41 -16.77 179.28 -18.9 176.72 -18.9 L 172.13 -18.9 C 171.53 -18.9 171.05 -18.41 171.05 -17.82 Z M 172.94 -11.31 L 172.94 -17.01 L 176.72 -17.01 C 178.39 -17.01 179.52 -15.88 179.52 -14.2 C 179.52 -12.47 178.36 -11.31 176.72 -11.31 Z M 196.53 -17.66 L 202.28 -8.88 L 202.28 -0.86 C 202.28 -0.32 202.72 0.08 203.23 0.08 C 203.74 0.08 204.17 -0.32 204.17 -0.86 L 204.17 -8.96 L 209.9 -17.66 C 209.98 -17.82 210.06 -17.98 210.06 -18.2 C 210.06 -18.71 209.63 -19.14 209.12 -19.14 C 208.79 -19.14 208.49 -18.98 208.33 -18.71 L 203.2 -10.94 L 198.1 -18.71 C 197.94 -18.98 197.64 -19.14 197.32 -19.14 C 196.8 -19.14 196.37 -18.71 196.37 -18.2 C 196.37 -17.98 196.42 -17.82 196.53 -17.66 Z M 240.11 -17.01 L 241.7 -17.01 L 241.7 -1.89 L 240.11 -1.89 C 239.57 -1.89 239.17 -1.46 239.17 -0.94 C 239.17 -0.43 239.57 0 240.11 0 L 245.19 0 C 245.7 0 246.13 -0.43 246.13 -0.94 C 246.13 -1.46 245.7 -1.89 245.19 -1.89 L 243.59 -1.89 L 243.59 -17.01 L 245.19 -17.01 C 245.7 -17.01 246.13 -17.44 246.13 -17.95 C 246.13 -18.47 245.7 -18.9 245.19 -18.9 L 240.11 -18.9 C 239.57 -18.9 239.17 -18.47 239.17 -17.95 C 239.17 -17.44 239.57 -17.01 240.11 -17.01 Z M 260.96 -0.86 L 260.9 -15.44 L 272.08 -0.46 C 272.78 0.43 274.19 -0.05 274.19 -1.16 L 274.19 -18.06 C 274.19 -18.58 273.75 -19.01 273.24 -19.01 C 272.73 -19.01 272.3 -18.58 272.3 -18.06 L 272.3 -3.32 L 260.98 -18.5 C 260.36 -19.33 259.01 -18.82 259.01 -17.77 L 259.06 -0.84 C 259.06 -0.32 259.5 0.11 260.01 0.11 C 260.52 0.11 260.96 -0.32 260.96 -0.86 Z M 287.28 -2.51 C 288.36 -1 290.25 0 292.38 0 C 295.68 0 298.43 -2.46 298.43 -5.56 C 298.43 -9.23 295.6 -10.26 293.44 -11.07 C 291.33 -11.83 289.41 -12.37 289.41 -14.2 C 289.41 -15.85 290.71 -17.01 292.68 -17.01 C 293.95 -17.01 294.87 -16.52 295.51 -15.66 C 295.68 -15.42 295.95 -15.25 296.27 -15.25 C 296.78 -15.25 297.22 -15.69 297.22 -16.2 C 297.22 -16.42 297.16 -16.61 297.03 -16.74 C 296.11 -18.04 294.49 -18.9 292.68 -18.9 C 289.85 -18.9 287.52 -16.79 287.52 -14.2 C 287.52 -10.96 290.74 -10.04 292.79 -9.29 C 294.92 -8.48 296.54 -7.88 296.54 -5.56 C 296.54 -3.43 294.84 -1.89 292.38 -1.89 C 290.79 -1.89 289.6 -2.51 288.85 -3.59 C 288.66 -3.83 288.39 -4 288.06 -4 C 287.55 -4 287.12 -3.56 287.12 -3.05 C 287.12 -2.86 287.17 -2.67 287.28 -2.51 Z M 312.31 -17.01 L 313.9 -17.01 L 313.9 -1.89 L 312.31 -1.89 C 311.77 -1.89 311.36 -1.46 311.36 -0.94 C 311.36 -0.43 311.77 0 312.31 0 L 317.39 0 C 317.9 0 318.33 -0.43 318.33 -0.94 C 318.33 -1.46 317.9 -1.89 317.39 -1.89 L 315.79 -1.89 L 315.79 -17.01 L 317.39 -17.01 C 317.9 -17.01 318.33 -17.44 318.33 -17.95 C 318.33 -18.47 317.9 -18.9 317.39 -18.9 L 312.31 -18.9 C 311.77 -18.9 311.36 -18.47 311.36 -17.95 C 311.36 -17.44 311.77 -17.01 312.31 -17.01 Z M 342.6 -8.51 L 345.87 -8.51 L 345.87 -3.89 C 344.49 -2.62 342.77 -1.89 340.74 -1.89 C 336.37 -1.89 333.15 -5.1 333.15 -9.48 C 333.15 -13.8 336.37 -17.01 340.74 -17.01 C 342.25 -17.01 343.55 -16.63 344.74 -15.88 C 344.87 -15.79 345.03 -15.74 345.22 -15.74 C 345.74 -15.74 346.17 -16.17 346.17 -16.69 C 346.17 -17.01 345.98 -17.31 345.71 -17.5 C 344.28 -18.39 342.55 -18.9 340.74 -18.9 C 335.48 -18.9 331.26 -14.69 331.26 -9.48 C 331.26 -4.21 335.48 0 340.74 0 C 343.41 0 345.87 -1.13 347.57 -2.94 C 347.63 -3 347.76 -3.29 347.76 -3.56 L 347.76 -9.31 C 347.76 -9.91 347.27 -10.39 346.68 -10.39 L 342.6 -10.39 C 342.06 -10.39 341.66 -9.96 341.66 -9.45 C 341.66 -8.94 342.06 -8.51 342.6 -8.51 Z M 362.58 -0.86 L 362.58 -8.51 L 372.84 -8.51 L 372.84 -0.86 C 372.84 -0.32 373.28 0.08 373.79 0.08 C 374.3 0.08 374.73 -0.32 374.73 -0.86 L 374.73 -18.06 C 374.73 -18.58 374.3 -19.01 373.79 -19.01 C 373.28 -19.01 372.84 -18.58 372.84 -18.06 L 372.84 -10.39 L 362.58 -10.39 L 362.58 -18.06 C 362.58 -18.58 362.15 -19.01 361.64 -19.01 C 361.13 -19.01 360.69 -18.58 360.69 -18.06 L 360.69 -0.86 C 360.69 -0.32 361.13 0.08 361.64 0.08 C 362.15 0.08 362.58 -0.32 362.58 -0.86 Z M 395.33 -0.86 L 395.33 -17.01 L 400.17 -17.01 C 400.68 -17.01 401.11 -17.44 401.11 -17.95 C 401.11 -18.47 400.68 -18.9 400.17 -18.9 L 388.61 -18.9 C 388.07 -18.9 387.67 -18.47 387.67 -17.95 C 387.67 -17.44 388.07 -17.01 388.61 -17.01 L 393.44 -17.01 L 393.44 -0.86 C 393.44 -0.32 393.88 0.08 394.39 0.08 C 394.9 0.08 395.33 -0.32 395.33 -0.86 Z" stroke-linecap="round" />
</g>
</g>
</g>
<g transform="matrix(1 0 0 1 325 445.8563128142638)" id="tagline-c8649942-efd2-444b-9595-997e25c53bb8-logo"  >
<g style=""  paint-order="stroke"   >
		<g transform="matrix(1 0 0 1 0 0)" id="tagline-c8649942-efd2-444b-9595-997e25c53bb8-logo-path-0"  >
<path style="stroke: none; stroke-width: 0; stroke-dasharray: none; stroke-linecap: butt; stroke-dashoffset: 0; stroke-linejoin: miter; stroke-miterlimit: 4; fill: rgb(235,206,144); fill-rule: nonzero; opacity: 1;"  paint-order="stroke"  transform=" translate(0, 0)" d="" stroke-linecap="round" />
</g>
</g>
</g>
</svg>